<svg version="1.1" viewBox="0 0 96 96" xmlns="http://www.w3.org/2000/svg" xmlns:xlink="http://www.w3.org/1999/xlink" id="Icons_Palette" overflow="hidden"><path d=" M 78 51 C 75.2 51 73 49.4 73 47.5 C 73 45.6 75.2 44 78 44 C 80.8 44 83 45.6 83 47.5 C 83 49.4 80.8 51 78 51 Z M 73 62 C 70.2 62 68 60.4 68 58.5 C 68 56.6 70.2 55 73 55 C 75.8 55 78 56.6 78 58.5 C 78 60.4 75.8 62 73 62 Z M 62 34 C 59.2 34 57 32.4 57 30.5 C 57 28.6 59.2 27 62 27 C 64.8 27 67 28.6 67 30.5 C 67 32.4 64.8 34 62 34 Z M 62 68 C 59.2 68 57 66.4 57 64.5 C 57 62.6 59.2 61 62 61 C 64.8 61 67 62.6 67 64.5 C 67 66.4 64.8 68 62 68 Z M 48 71 C 45.2 71 43 69.4 43 67.5 C 43 65.6 45.2 64 48 64 C 50.8 64 53 65.6 53 67.5 C 53 69.4 50.8 71 48 71 Z M 42.6 30.6 C 44.2 29 46.3 28.7 47.4 29.8 C 48.5 30.9 48.1 33 46.6 34.6 C 45 36.2 42.9 36.5 41.8 35.4 C 40.6 34.3 41 32.1 42.6 30.6 Z M 34 69 C 31.2 69 29 67.4 29 65.5 C 29 63.6 31.2 62 34 62 C 36.8 62 39 63.6 39 65.5 C 39 67.4 36.8 69 34 69 Z M 73 34 C 75.8 34 78 35.6 78 37.5 C 78 39.4 75.8 41 73 41 C 70.2 41 68 39.4 68 37.5 C 68 35.6 70.2 34 73 34 Z M 48 20 C 25.3 20 28.9 28.9 31 31 L 36 36 C 39.2 39.3 35.3 43 31.6 41.4 L 19.1 36 C 10.3 32.2 8 42.9 8 48 C 8 63.5 25.9 76 48 76 C 70.1 76 88 63.5 88 48 C 88 32.5 70.1 20 48 20 Z"/></svg>